<svg width="62" height="58" viewBox="0 0 62 58" fill="none" xmlns="http://www.w3.org/2000/svg">
<path d="M13.8179 57.8343C21.4493 57.8343 27.6359 51.6478 27.6359 44.0164C27.6359 36.385 21.4493 30.1985 13.8179 30.1985C6.18647 30.1985 0 36.385 0 44.0164C0 51.6478 6.18647 57.8343 13.8179 57.8343Z" fill="#D22688"/>
<path d="M34.462 42.6638C35.3008 42.6638 35.981 41.9838 35.981 41.1449C35.981 40.306 35.3008 39.626 34.462 39.626C33.6231 39.626 32.9431 40.306 32.9431 41.1449C32.9431 41.9838 33.6231 42.6638 34.462 42.6638Z" fill="black"/>
<path d="M43.0005 21.3051C42.8318 16.9131 39.2257 13.3426 34.7928 13.1765C33.6355 13.1262 32.4801 13.312 31.3968 13.7225C30.3135 14.133 29.3251 14.7597 28.4917 15.5643C27.6754 16.3438 27.0263 17.2813 26.5839 18.3197C26.1414 19.3581 25.9148 20.4757 25.9179 21.6044C25.9057 21.811 25.9359 22.018 26.0066 22.2125C26.0773 22.4071 26.1871 22.5851 26.329 22.7358C26.471 22.8864 26.6423 23.0064 26.8324 23.0884C27.0224 23.1704 27.2272 23.2128 27.4342 23.2128C27.6412 23.2128 27.8461 23.1704 28.0362 23.0884C28.2262 23.0064 28.3975 22.8864 28.5395 22.7358C28.6815 22.5851 28.7912 22.4071 28.8619 22.2125C28.9326 22.018 28.9627 21.811 28.9505 21.6044C28.9488 20.8846 29.0936 20.1719 29.376 19.5098C29.6585 18.8477 30.0726 18.25 30.5933 17.753C31.6298 16.754 33.0157 16.1995 34.4552 16.2077C34.5282 16.2077 34.6008 16.2077 34.6728 16.2077C37.5287 16.3158 39.8506 18.6035 39.9587 21.4171C40.0034 22.694 39.5971 23.9458 38.8112 24.953C38.0252 25.9603 36.9098 26.6587 35.6604 26.9259C34.8886 27.0881 34.1964 27.5116 33.7004 28.1247C33.2045 28.7379 32.935 29.5034 32.9377 30.292V33.4564C32.9605 33.8431 33.1302 34.2064 33.412 34.4722C33.6939 34.7379 34.0666 34.8859 34.4539 34.8859C34.8413 34.8859 35.214 34.7379 35.4959 34.4722C35.7777 34.2064 35.9474 33.8431 35.9702 33.4564V29.9756L36.4884 29.8437C38.3903 29.3867 40.0767 28.2878 41.2629 26.7324C42.4492 25.177 43.0629 23.2602 43.0005 21.3051V21.3051Z" fill="black"/>
<path d="M53.9637 8.03039C50.3273 4.39481 45.7421 1.8548 40.7314 0.700247C35.7206 -0.454306 30.4862 -0.176886 25.6255 1.50085C20.7648 3.17858 16.4737 6.18904 13.242 10.1886C10.0103 14.1882 7.96809 19.0158 7.3485 24.1204C6.72892 29.225 7.55697 34.4009 9.73804 39.0575C11.9191 43.7141 15.3653 47.6637 19.6835 50.4555C24.0016 53.2473 29.0177 54.7689 34.1592 54.8467C39.3007 54.9244 44.3603 53.555 48.7609 50.895C49.0972 50.6824 49.3367 50.3463 49.4278 49.959C49.519 49.5717 49.4545 49.164 49.2482 48.8238C49.042 48.4835 48.7105 48.2377 48.325 48.1393C47.9395 48.0409 47.5307 48.0977 47.1866 48.2975C43.3809 50.5989 39.0173 51.8137 34.5698 51.81C21.1211 51.81 10.1775 40.8664 10.1775 27.4177C10.1775 13.9689 21.1211 3.02535 34.5698 3.02535C48.0186 3.02535 58.9622 13.9689 58.9622 27.4177C58.9581 32.2398 57.5192 36.9517 54.8287 40.9534C54.6079 41.2883 54.5284 41.6969 54.6077 42.0901C54.6871 42.4833 54.9188 42.8291 55.2522 43.0521C55.5856 43.2751 55.9936 43.3572 56.3873 43.2805C56.781 43.2037 57.1283 42.9744 57.3536 42.6424C60.891 37.3748 62.4876 31.0415 61.8699 24.7264C61.2523 18.4114 58.4588 12.5074 53.9677 8.02512L53.9637 8.03039Z" fill="black"/>
</svg>
