<svg width="43" height="43" viewBox="0 0 43 43" fill="none" xmlns="http://www.w3.org/2000/svg">
<g clip-path="url(#clip0_333_1576)">
<path d="M29.2089 38.8159C34.4333 38.8159 38.6685 34.5806 38.6685 29.3562C38.6685 24.1318 34.4333 19.8966 29.2089 19.8966C23.9845 19.8966 19.7493 24.1318 19.7493 29.3562C19.7493 34.5806 23.9845 38.8159 29.2089 38.8159Z" fill="#D22688"/>
<path d="M42.1097 2.08144C42.1167 2.0545 42.1228 2.02844 42.1288 2.0015C42.1288 1.99368 42.1288 1.98499 42.1288 1.97717C42.1288 1.95284 42.1358 1.92937 42.1384 1.90591C42.1384 1.89722 42.1384 1.88852 42.1384 1.8807C42.1418 1.84983 42.1436 1.8188 42.1436 1.78774C42.1436 1.78774 42.1436 1.78773 42.1436 1.78252C42.1436 1.75297 42.1436 1.7243 42.1436 1.69562V1.67042C42.1436 1.64435 42.1367 1.61914 42.1323 1.59307V1.57656C42.1262 1.54789 42.1193 1.51921 42.1114 1.48966C42.1114 1.47924 42.1045 1.46882 42.1019 1.45839L42.081 1.39842C42.0767 1.38886 42.0741 1.37931 42.0697 1.36889C42.0584 1.34282 42.0471 1.31761 42.0341 1.29241L42.0176 1.26201C42.0072 1.24289 41.9959 1.22463 41.9846 1.20551C41.9733 1.18639 41.9742 1.189 41.9681 1.18118C41.9514 1.15565 41.9334 1.13101 41.9142 1.10733L41.8986 1.08821C41.8812 1.06822 41.8638 1.04822 41.8447 1.02911C41.8414 1.02513 41.838 1.02136 41.8342 1.01782L41.829 1.0126L41.8221 1.00479C41.8012 0.985676 41.7804 0.966546 41.7586 0.948297L41.7378 0.932662C41.7187 0.917889 41.6996 0.903118 41.6796 0.890083L41.6552 0.873578C41.6309 0.857184 41.6056 0.842098 41.5796 0.828389L41.5518 0.814472L41.4936 0.78755L41.4632 0.775373C41.4363 0.764076 41.4084 0.75451 41.3806 0.74582L41.3606 0.740622C41.3366 0.733599 41.3123 0.727803 41.2877 0.723247L41.2633 0.718028C41.2014 0.706725 41.1386 0.700624 41.0756 0.699783H41.0565C41.027 0.699783 40.9983 0.699766 40.9696 0.704111H40.9601C40.9296 0.704111 40.8984 0.711945 40.8679 0.717159L40.8427 0.722377L40.7776 0.738883L40.7463 0.74756H40.7376L0.90654 13.4215C0.690448 13.4903 0.501299 13.6249 0.365597 13.8066C0.229895 13.9883 0.154481 14.2079 0.149882 14.4346C0.145282 14.6613 0.211748 14.8838 0.339969 15.0708C0.468191 15.2578 0.651705 15.4 0.864832 15.4775L20.3411 22.5596L28.8501 42.0463C28.9347 42.24 29.074 42.4048 29.2509 42.5206C29.4277 42.6363 29.6345 42.698 29.8459 42.698H29.9206C30.1441 42.6827 30.3573 42.5987 30.5311 42.4574C30.7049 42.3162 30.8307 42.1246 30.8913 41.909L42.1054 2.09708L42.1097 2.08144ZM29.6252 38.3906L22.146 21.2631C22.0871 21.1283 22.0014 21.0069 21.8941 20.9062C21.7869 20.8056 21.6603 20.7277 21.522 20.6774L4.60404 14.5251L37.1401 4.17306L24.0029 17.3093C23.8992 17.4095 23.8164 17.5293 23.7594 17.6618C23.7025 17.7943 23.6725 17.9368 23.6712 18.0811C23.6699 18.2253 23.6973 18.3683 23.7519 18.5018C23.8065 18.6353 23.8871 18.7566 23.9891 18.8587C24.091 18.9607 24.2123 19.0414 24.3457 19.096C24.4792 19.1507 24.6222 19.1782 24.7665 19.177C24.9107 19.1758 25.0532 19.1459 25.1858 19.089C25.3183 19.0321 25.4382 18.9493 25.5384 18.8456L38.891 5.49389L29.6252 38.3906Z" fill="black"/>
<path d="M14.685 28.1797C14.4835 27.9738 14.2085 27.8563 13.9205 27.8531C13.6324 27.8498 13.3548 27.961 13.1487 28.1623L0.476484 40.5625C0.27505 40.7649 0.161399 41.0385 0.160166 41.3241C0.158933 41.6096 0.270229 41.8842 0.469907 42.0883C0.669586 42.2924 0.941607 42.4097 1.22712 42.4148C1.51263 42.4199 1.78865 42.3123 1.99544 42.1154L14.6685 29.7143C14.8742 29.5129 14.9915 29.2382 14.9945 28.9504C14.9976 28.6626 14.8863 28.3854 14.685 28.1797Z" fill="black"/>
<path d="M1.2358 31.8354C1.37848 31.8356 1.51983 31.8077 1.65166 31.7531C1.78349 31.6985 1.90323 31.6184 2.004 31.5174L7.43507 26.0863C7.53595 25.9854 7.61597 25.8657 7.67056 25.7339C7.72516 25.6021 7.75326 25.4608 7.75326 25.3181C7.75326 25.1755 7.72516 25.0342 7.67056 24.9024C7.61597 24.7706 7.53595 24.6508 7.43507 24.55C7.3342 24.4491 7.21441 24.3691 7.08261 24.3145C6.9508 24.2599 6.80954 24.2318 6.66688 24.2318C6.52421 24.2318 6.38295 24.2599 6.25114 24.3145C6.11934 24.3691 5.9996 24.4491 5.89872 24.55L0.467646 29.981C0.315695 30.133 0.212223 30.3265 0.170295 30.5372C0.128366 30.748 0.149886 30.9664 0.232116 31.1649C0.314345 31.3634 0.453569 31.5331 0.632233 31.6524C0.810897 31.7718 1.02094 31.8355 1.2358 31.8354Z" fill="black"/>
<path d="M16.7732 35.4008L11.3421 40.672C11.2308 40.769 11.1405 40.8876 11.0767 41.0207C11.0128 41.1538 10.9767 41.2984 10.9706 41.4459C10.9646 41.5934 10.9886 41.7405 11.0413 41.8784C11.094 42.0163 11.1742 42.142 11.2771 42.2478C11.38 42.3536 11.5033 42.4374 11.6396 42.4939C11.776 42.5505 11.9224 42.5787 12.0699 42.5768C12.2175 42.5749 12.3632 42.5429 12.498 42.4829C12.6328 42.4228 12.754 42.3359 12.8541 42.2274L18.2852 36.9563C18.4889 36.755 18.605 36.4813 18.608 36.1949C18.611 35.9085 18.5008 35.6325 18.3014 35.427C18.1019 35.2214 17.8293 35.103 17.5429 35.0974C17.2566 35.0919 16.9796 35.1996 16.7723 35.3973L16.7732 35.4008Z" fill="black"/>
</g>
<defs>
<clipPath id="clip0_333_1576">
<rect width="42" height="42" fill="white" transform="translate(0.149658 0.697571)"/>
</clipPath>
</defs>
</svg>
